<svg width="472" height="297" xmlns="http://www.w3.org/2000/svg">
 <metadata id="metadata8">image/svg+xml</metadata>
 <defs>
  <clipPath clipPathUnits="userSpaceOnUse" id="clipPath18">
   <path d="m-41.500082,634.03921l441.211,0l0,-595.789l-441.211,0l0,595.789z" id="path16"/>
  </clipPath>
 </defs>
 <g>
  <title>background</title>
  <rect fill="none" id="canvas_background" height="299" width="474" y="-1" x="-1"/>
 </g>
 <g>
  <title>Layer 1</title>
  <g id="g10" transform="matrix(1.3333333,0,0,-1.3333333,0,794.38533) ">
   <g id="g12">
    <g id="g14" clip-path="url(#clipPath18)">
     <g id="g20">
      <path fill="#001E13" fill-rule="nonzero" d="m184.415125,436.044918c0,-3.468 0.195,-6.951 -0.064,-10.399c-0.194,-2.583 0.959,-4.245 2.715,-5.739c4.631,-3.942 11.184,-2.935 13.978,2.31c1.01,1.896 1.64,4.064 2.071,6.184c0.944,4.642 0.781,9.373 0.442,14.061c-0.18,2.479 -0.678,4.984 -1.404,7.363c-1.607,5.27 -6.692,7.508 -11.6,5.236c-2.429,-1.123 -4.143,-3.078 -5.527,-5.306c-0.355,-0.57 -0.575,-1.32 -0.584,-1.991c-0.054,-3.906 -0.027,-7.813 -0.027,-11.719m-1.427,-24.536c-0.168,-1.354 -0.322,-2.472 -0.444,-3.594c-0.174,-1.609 -0.192,-1.637 -1.806,-1.637c-4.428,-0.001 -8.856,0.024 -13.284,-0.02c-0.951,-0.01 -1.224,0.285 -1.224,1.226c0.022,27.606 0.021,55.212 0.003,82.817c-0.001,0.869 0.189,1.274 1.151,1.372c5.195,0.533 10.382,1.147 15.574,1.708c1.407,0.152 1.456,0.074 1.456,-1.394c0.002,-9.614 0,-19.228 0.003,-28.842c0,-0.456 0.039,-0.912 0.072,-1.648c0.435,0.404 0.668,0.586 0.86,0.804c4.805,5.461 10.735,7.803 18.034,6.857c8.18,-1.06 13.157,-5.861 16.083,-13.211c2.568,-6.452 3.088,-13.227 3.022,-20.079c-0.054,-5.584 -0.883,-11.038 -3.022,-16.231c-2.449,-5.945 -6.184,-10.782 -12.222,-13.439c-7.809,-3.438 -17.66,-2.426 -23.557,4.751c-0.115,0.141 -0.288,0.234 -0.699,0.56" id="path22"/>
     </g>
     <g id="g24">
      <path fill="#001E13" fill-rule="nonzero" d="m131.171412,428.772396l-0.004,0c0,1.394 -0.017,2.789 0.006,4.182c0.012,0.761 -0.309,1.06 -1.073,1.062c-3.705,0.007 -7.393,-0.006 -11.037,-0.894c-5.117,-1.247 -7.643,-4.821 -6.922,-10.03c0.313,-2.263 1.524,-3.903 3.573,-4.879c4.196,-1.998 10.387,-0.472 13.726,3.305c1.182,1.337 1.988,2.749 1.75,4.627c-0.11,0.863 -0.019,1.751 -0.019,2.627m2.773,-16.317c-1.008,-0.893 -1.897,-1.744 -2.851,-2.514c-4.34,-3.505 -9.407,-5.136 -14.885,-5.532c-4.761,-0.343 -9.437,0.147 -13.662,2.595c-6.991,4.052 -9.754,10.351 -9.219,18.205c0.579,8.517 5.667,13.526 13.22,16.493c5.477,2.151 11.231,2.562 17.035,2.603c2.075,0.014 4.151,0.042 6.225,-0.012c1.059,-0.028 1.385,0.4 1.379,1.416c-0.02,3.381 -0.647,6.501 -3.827,8.372c-3.233,1.901 -6.822,2.041 -10.445,1.737c-4.705,-0.394 -9.294,-1.381 -13.775,-2.858c-0.675,-0.223 -0.899,-0.023 -1.11,0.598c-1.175,3.467 -2.414,6.913 -3.555,10.391c-0.095,0.291 0.29,1.017 0.596,1.122c9.682,3.312 19.571,5.218 29.845,3.868c5.203,-0.683 10.131,-2.166 14.076,-5.925c2.818,-2.685 4.468,-6.004 5.088,-9.79c0.358,-2.191 0.49,-4.439 0.508,-6.664c0.061,-7.422 0.005,-14.844 0.041,-22.267c0.007,-1.265 0.205,-2.535 0.388,-3.793c0.236,-1.622 1.206,-2.788 2.621,-3.496c0.798,-0.398 0.936,-0.861 0.692,-1.61c-1.068,-3.294 -2.112,-6.595 -3.22,-9.875c-0.117,-0.344 -0.63,-0.833 -0.909,-0.803c-4.895,0.538 -9.485,1.804 -12.817,5.802c-0.482,0.577 -0.9,1.207 -1.439,1.937" id="path26"/>
     </g>
     <g id="g28">
      <path fill="#001E13" fill-rule="nonzero" d="m39.683115,438.261196c0,4.946 0.001,9.893 -0.001,14.839c0,1.633 -0.004,1.635 -1.683,1.636c-3.231,0.001 -6.463,0.035 -9.693,-0.02c-1.019,-0.018 -1.415,0.246 -1.395,1.331c0.06,3.31 0.062,6.623 -0.002,9.932c-0.021,1.094 0.385,1.351 1.396,1.335c3.31,-0.05 6.622,0.013 9.932,-0.037c1.088,-0.016 1.479,0.356 1.464,1.454c-0.049,3.51 0.003,7.021 -0.033,10.531c-0.009,0.872 0.217,1.284 1.163,1.39c5.307,0.595 10.61,1.232 15.909,1.898c1.058,0.133 1.097,-0.443 1.096,-1.197c-0.008,-4.149 -0.006,-8.298 -0.003,-12.446c0.002,-1.556 0.056,-1.61 1.623,-1.611c5.505,-0.002 11.01,-0.024 16.514,0.019c1.11,0.009 1.491,-0.281 1.306,-1.439c-0.547,-3.422 -1.017,-6.858 -1.492,-10.291c-0.117,-0.846 -0.693,-0.849 -1.315,-0.849c-3.391,0.001 -6.781,0 -10.172,0c-1.755,0 -3.511,-0.027 -5.265,0.011c-0.857,0.019 -1.215,-0.269 -1.212,-1.17c0.026,-8.975 0.008,-17.95 0.047,-26.925c0.004,-1.065 0.161,-2.158 0.435,-3.188c0.861,-3.229 3.36,-4.393 6.368,-4.678c4.01,-0.381 7.867,0.309 11.484,2.115c0.834,0.417 1.248,0.308 1.674,-0.549c1.577,-3.171 3.192,-6.325 4.869,-9.444c0.464,-0.864 0.244,-1.263 -0.509,-1.705c-5.052,-2.967 -10.541,-4.47 -16.35,-4.801c-4.28,-0.244 -8.53,0.006 -12.65,1.366c-6.345,2.094 -10.382,6.405 -12.353,12.745c-0.959,3.087 -1.124,6.263 -1.146,9.456c-0.025,3.431 -0.006,6.861 -0.006,10.292" id="path30"/>
     </g>
     <g id="g32">
      <path fill="none" stroke="#001E13" stroke-width="15" stroke-miterlimit="10" d="m303.936106,381.934414l-254.743,0c-22.474,0 -40.693,18.219 -40.693,40.693l0,123.679c0,22.475 18.219,40.694 40.693,40.694l254.743,0c22.474,0 40.693,-18.219 40.693,-40.694l0,-123.679c0,-22.474 -18.219,-40.693 -40.693,-40.693z" id="path34"/>
     </g>
     <g id="g36"/>
    </g>
   </g>
  </g>
 </g>
</svg>
